<svg xmlns="http://www.w3.org/2000/svg" viewBox="0 0 400 400" width="400" height="400" role="img" aria-label="Ürün görseli yakında">
  <rect width="400" height="400" fill="#FBFAF7"/>
  <g fill="none" stroke="#B8964F" stroke-width="1.4" stroke-linejoin="round" stroke-linecap="round">
    <!-- emerald cut, deliberately not the round brilliant used on the category
         tiles, so a product placeholder is never mistaken for a category one -->
    <path d="M152 138 L172 118 L228 118 L248 138 L248 262 L228 282 L172 282 L152 262 Z"/>
    <path d="M168 154 L182 140 L218 140 L232 154 L232 246 L218 260 L182 260 L168 246 Z"/>
    <path d="M152 138 L168 154"/>
    <path d="M248 138 L232 154"/>
    <path d="M152 262 L168 246"/>
    <path d="M248 262 L232 246"/>
    <path d="M182 140 V260"/>
    <path d="M218 140 V260"/>
  </g>
  <g fill="none" stroke="#8A6D2F" stroke-width="1" opacity="0.4">
    <path d="M56 56 H120 M56 56 V120"/>
    <path d="M344 344 H280 M344 344 V280"/>
  </g>
</svg>
